<?xml version="1.0" encoding="UTF-8"?>
<svg id="Camada_2" data-name="Camada 2" xmlns="http://www.w3.org/2000/svg" viewBox="0 0 1983.64 432.49">
  <defs>
    <style>
      .cls-1 {
        fill: #fff;
      }
    </style>
  </defs>
  <g id="Camada_1-2" data-name="Camada 1">
    <g>
      <path class="cls-1" d="M621.86,295.69l-40.71-191.63c-.94-4.7-.31-9.39,5.64-12.52v-1.25h-62v1.25c4.7,2.82,6.58,6.58,5.32,12.52l-40.71,191.63c-1.57,6.26-5.32,10.02-9.08,12.53v1.25h33.82v-1.25c-5.64-3.13-6.58-8.14-5.64-12.53l10.96-51.04h72.33l10.96,51.04c1.25,5.01-.31,9.71-5.32,12.53v1.25h33.5v-1.25c-4.07-2.51-7.83-6.89-9.08-12.53ZM523.23,226.48l25.05-117.74h14.72l25.05,117.74h-64.82Z"/>
      <path class="cls-1" d="M818.5,278.78c-4.7,0-28.18,16.91-68.57,16.91-52.92,0-97.38-36.64-97.38-97.7s47.6-93.94,89.55-93.94c32.57,0,53.86,16.28,58.24,25.05h2.19v-31h-2.51c-.94,1.57-1.88,2.51-3.76,2.51-5.32,0-22.23-14.72-53.54-14.72-58.24,0-110.22,44.46-110.22,112.41s51.98,115.54,112.73,115.54c44.15,0,74.52-21.92,74.52-32.57,0-1.57-.63-2.51-1.25-2.51Z"/>
      <path class="cls-1" d="M927.47,295.69l-41.02-191.63c-1.25-5.95,1.25-10.02,5.64-12.52v-1.25h-62v1.25c4.38,2.51,6.89,6.26,5.64,12.52l-17.22,80.79c-15.34-6.26-30.06-12.21-44.46-12.21-20.98,0-37.58,13.46-37.58,31.31,0,14.4,10.96,25.68,23.48,25.68,4.7,0,6.89-1.57,6.89-2.82,0-3.13-15.66-4.7-15.66-19.1,0-11.27,9.08-18.79,22.86-18.79,11.9,0,25.68,5.64,41.02,11.9l-10.96,51.04c-1.25,5.01-4.38,9.71-9.08,12.52v1.25h33.5v-1.25c-5.64-3.13-6.26-8.14-5.32-12.52l9.39-43.84c12.84,4.7,26.62,8.45,40.39,8.45,5.32,0,11.27-.31,17.85-1.88l17.22,81.1c1.25,5.64-.63,9.71-5.32,12.53v1.25h33.5v-1.25c-3.44-2.19-7.52-6.58-8.77-12.53ZM871.11,198.62c-12.21,0-23.8-2.82-35.07-6.89l17.85-82.98h14.4l18.79,87.99c-5.64,1.25-10.65,1.88-15.97,1.88Z"/>
      <path class="cls-1" d="M1005.12,90.27h-56.99v1.25c4.07,2.82,7.2,7.2,7.2,12.52v191.63c0,5.01-3.13,9.71-7.2,12.53v1.25h72.65c57.93,0,104.9-35.07,104.9-110.53s-49.79-108.65-120.55-108.65ZM1016.4,290.99h-41.33V108.75h31.31c66.38,0,99.26,30.06,99.26,90.81s-30.37,91.43-89.24,91.43Z"/>
      <path class="cls-1" d="M1237.78,290.99h-68.57v-115.23h52.61c5.32,0,10.02,2.5,12.53,6.26h1.25v-31h-1.25c-2.51,3.76-7.2,6.26-12.53,6.26h-52.61v-48.53h59.49c5.64,0,10.33,2.19,12.21,6.58h1.88l-3.76-25.05h-96.76v1.25c4.07,2.82,7.2,7.2,7.2,12.52v191.63c0,5.01-3.13,9.71-7.2,12.53v1.25h105.52l3.76-25.05h-1.57c-1.88,4.38-6.89,6.58-12.21,6.58Z"/>
      <path class="cls-1" d="M1383.38,91.53c5.95,3.13,6.89,9.39,3.13,14.09l-44.15,59.49-44.46-59.49c-3.76-4.7-2.51-10.65,3.44-14.09v-1.25h-35.7v1.25c4.07,2.82,7.2,7.2,7.2,12.52v191.63c0,5.01-3.13,9.71-7.2,12.53v1.25h33.82v-1.25c-4.07-2.82-6.89-7.52-6.89-12.53v-164.7l49.16,65.76h1.25l49.16-65.76v164.7c0,5.01-3.13,9.71-7.2,12.53v1.25h33.82v-1.25c-4.07-2.82-6.89-7.52-6.89-12.53V104.05c0-5.32,2.82-9.71,6.89-12.52v-1.25h-35.38v1.25Z"/>
      <path class="cls-1" d="M1444.44,91.53c4.07,2.82,7.2,7.2,7.2,12.52v191.63c0,5.01-3.13,9.71-7.2,12.53v1.25h33.82v-1.25c-4.07-2.82-6.89-7.52-6.89-12.53V104.05c0-5.32,2.82-9.71,6.89-12.52v-1.25h-33.82v1.25Z"/>
      <path class="cls-1" d="M1563.43,295.69V108.75h41.33c5.64,0,10.65,2.19,12.21,6.58h1.57l-3.76-25.05h-122.12l-4.07,25.05h1.88c2.19-4.38,6.89-6.58,12.21-6.58h41.02v186.94c0,5.01-2.82,9.71-6.89,12.53v1.25h33.82v-1.25c-4.07-2.82-7.2-7.52-7.2-12.53Z"/>
      <path class="cls-1" d="M1740.34,295.69l-40.71-191.63c-.94-4.7-.31-9.39,5.64-12.52v-1.25h-62v1.25c4.7,2.82,6.58,6.58,5.32,12.52l-40.71,191.63c-1.57,6.26-5.32,10.02-9.08,12.53v1.25h33.82v-1.25c-5.64-3.13-6.58-8.14-5.64-12.53l10.96-51.04h72.33l10.96,51.04c1.25,5.01-.31,9.71-5.32,12.53v1.25h33.5v-1.25c-4.07-2.51-7.83-6.89-9.08-12.53ZM1641.71,226.48l25.05-117.74h14.72l25.05,117.74h-64.82Z"/>
      <path class="cls-1" d="M1842.11,290.99h-53.86V104.05c0-5.32,2.82-9.71,6.89-12.52v-1.25h-33.82v1.25c4.07,2.82,7.2,7.2,7.2,12.52v191.63c0,5.01-3.13,9.71-7.2,12.53v1.25h90.49l4.07-25.05h-1.57c-1.88,4.38-6.58,6.58-12.21,6.58Z"/>
      <path class="cls-1" d="M1949.82,90.27v1.25c5.01,2.82,4.7,6.26,2.19,11.27l-42.9,82.35-42.9-82.35c-2.51-4.7-2.82-8.45,2.19-11.27v-1.25h-34.13v1.25c4.38,1.25,8.14,6.26,10.65,11.27l54.17,104.27v88.61c0,5.01-2.82,9.71-6.89,12.53v1.25h33.82v-1.25c-4.07-2.82-7.2-7.52-7.2-12.53v-88.61l54.17-104.27c2.82-5.01,6.58-10.02,10.65-11.27v-1.25h-33.82Z"/>
    </g>
    <g>
      <path class="cls-1" d="M489.2,392.96c0-10.22-.16-20.29-.63-30.27h23.06c14.19,0,21.72,5.94,21.72,18.86s-7.29,18.94-22.19,18.94c-6.74,0-12.13-.4-17.44-1.59.16,2.62.16,4.12.16,6.26,0,5.39.08,9.19.32,17.99h-5.55c.32-9.99.55-19.97.55-30.2ZM510.67,396.84c10.86,0,17.36-4.04,17.36-15.3s-6.02-15.37-17.36-15.37h-16.64l-.16,29.8v.87h16.8Z"/>
      <path class="cls-1" d="M546.34,393.04c0-19.89,9.91-31.15,26.87-31.15s26.79,11.25,26.79,31.15-9.91,31.07-26.79,31.07-26.87-11.25-26.87-31.07ZM590.08,413.64c2.93-5.71,4.44-12.2,4.44-20.61,0-18.15-8.08-27.1-21.79-27.1-6.89,0-12.52,2.14-16.41,6.34-3.09,5.94-4.52,12.28-4.52,20.76,0,18.07,8,27.1,21.87,27.1,6.82,0,12.44-2.3,16.41-6.5Z"/>
      <path class="cls-1" d="M615.76,392.96c0-7.93-.24-21.56-.48-30.27h21.87c16.17,0,22.11,5.31,22.11,16.72,0,10.46-5.86,15.14-16.09,15.69v.87c7.29.79,10.94,3.8,14.11,12.76l4.99,14.42h-5.63c-1.19-3.33-3.25-9.67-4.44-13.39-2.85-8.4-6.58-12.52-16.17-12.52h-15.61c0,8.96.08,17.28.24,25.92h-5.39c.24-8.64.48-22.27.48-30.2ZM653.88,380.04c0-9.99-4.91-13.87-17.59-13.87h-15.45l-.32,16.17-.08,11.41h15.53c13.16,0,17.91-4.6,17.91-13.71Z"/>
      <path class="cls-1" d="M698.81,362.68h5.63c5.86,16.72,15.14,41.61,20.69,57.22h.55c5.55-15.61,14.82-40.5,20.69-57.22h5.63c-6.74,17.83-16.41,43.19-22.51,60.47h-8.16c-6.1-17.28-15.77-42.64-22.51-60.47Z"/>
      <path class="cls-1" d="M765.54,392.96c0-10.14-.08-20.05-.4-30.27h5.55c-.32,10.14-.48,20.21-.48,30.27s.16,20.13.48,30.2h-5.55c.24-10.06.4-20.05.4-30.2Z"/>
      <path class="cls-1" d="M783.85,362.68h5.63c5.86,16.72,15.14,41.61,20.69,57.22h.55c5.55-15.61,14.82-40.5,20.68-57.22h5.63c-6.74,17.83-16.41,43.19-22.51,60.47h-8.16c-6.1-17.28-15.77-42.64-22.51-60.47Z"/>
      <path class="cls-1" d="M850.89,392.96c0-8-.4-23.3-.71-30.27h39.94v3.72h-34.47v24.33l32.41-.16v3.65l-32.41-.08v25.28h35.19v3.72h-40.66c.32-6.89.71-22.27.71-30.2Z"/>
      <path class="cls-1" d="M906.84,392.96c0-14.9-.32-25.04-.55-30.27h6.97l27.58,43.67c2.3,3.8,4.6,7.85,6.82,12.05h.71c-.63-5.31-.63-10.38-.63-15.3,0-14.11-.08-30.59-.32-40.42h5.55c-.32,10.14-.55,18.31-.55,30.27s.24,22.82.4,30.2h-6.89l-27.66-43.75c-2.3-3.8-4.44-7.69-6.66-12.2h-.79c.55,4.52.79,9.19.79,13.31,0,21.24,0,33.37.24,42.64h-5.39c.16-9.19.4-15.37.4-30.2Z"/>
      <path class="cls-1" d="M972.06,393.04c0-8-.4-23.06-.71-30.35h20.37c18.31,0,28.13,8.72,28.13,30.27s-9.83,30.2-28.13,30.2h-20.37c.32-7.53.71-22.27.71-30.12ZM1014.54,392.96c0-18.7-7.45-26.79-24.65-26.79h-13.08l-.08,48.42v5.07h13.24c16.96,0,24.57-8,24.57-26.71Z"/>
      <path class="cls-1" d="M1034.43,393.04c0-19.89,9.91-31.15,26.87-31.15s26.79,11.25,26.79,31.15-9.91,31.07-26.79,31.07-26.87-11.25-26.87-31.07ZM1078.18,413.64c2.93-5.71,4.44-12.2,4.44-20.61,0-18.15-8.08-27.1-21.79-27.1-6.9,0-12.52,2.14-16.41,6.34-3.09,5.94-4.52,12.28-4.52,20.76,0,18.07,8,27.1,21.87,27.1,6.82,0,12.44-2.3,16.41-6.5Z"/>
      <path class="cls-1" d="M1148.16,362.68h8.24c6.26,17.36,16.01,42.56,22.9,60.47h-5.71l-6.5-17.67h-29.72l-6.5,17.67h-5.71c6.89-17.91,16.72-43.19,22.98-60.47ZM1152.51,365.93h-.55l-13.31,36.06h27.18l-13.31-36.06Z"/>
      <path class="cls-1" d="M1219.96,392.96c0-7.77-.48-23.22-.79-30.27h38.6v3.49h-33.13v24.89l31.07-.08v3.57l-31.07-.08.16,28.69h-5.63c.4-7.05.79-22.11.79-30.2Z"/>
      <path class="cls-1" d="M1271.07,399.62c0-6.1.32-12.28.32-18.47s-.16-12.36-.32-18.47h5.23c-.24,12.13-.16,24.49-.16,36.93,0,14.03,7.21,20.45,18.23,20.45,6.18,0,10.94-1.66,14.42-4.99,2.38-3.65,3.72-8.24,3.72-15.45,0-12.44.16-24.65-.16-36.93h5.23c-.16,6.1-.24,12.36-.24,18.47s.24,12.36.24,18.47c0,15.93-7.85,24.49-23.46,24.49-14.74,0-23.06-8.56-23.06-24.49Z"/>
      <path class="cls-1" d="M1335.74,392.96c0-14.9-.32-25.04-.55-30.27h6.97l27.58,43.67c2.3,3.8,4.6,7.85,6.82,12.05h.71c-.63-5.31-.63-10.38-.63-15.3,0-14.11-.08-30.59-.32-40.42h5.55c-.32,10.14-.55,18.31-.55,30.27s.24,22.82.4,30.2h-6.89l-27.66-43.75c-2.3-3.8-4.44-7.69-6.66-12.2h-.79c.55,4.52.79,9.19.79,13.31,0,21.24,0,33.37.24,42.64h-5.39c.16-9.19.4-15.37.4-30.2Z"/>
      <path class="cls-1" d="M1400.96,393.04c0-8-.4-23.06-.71-30.35h20.37c18.31,0,28.13,8.72,28.13,30.27s-9.83,30.2-28.13,30.2h-20.37c.32-7.53.71-22.27.71-30.12ZM1443.44,392.96c0-18.7-7.45-26.79-24.65-26.79h-13.08l-.08,48.42v5.07h13.24c16.96,0,24.57-8,24.57-26.71Z"/>
      <path class="cls-1" d="M1463.33,393.04c0-19.89,9.91-31.15,26.87-31.15s26.79,11.25,26.79,31.15-9.91,31.07-26.79,31.07-26.87-11.25-26.87-31.07ZM1507.08,413.64c2.93-5.71,4.44-12.2,4.44-20.61,0-18.15-8.08-27.1-21.79-27.1-6.9,0-12.52,2.14-16.41,6.34-3.09,5.94-4.52,12.28-4.52,20.76,0,18.07,8,27.1,21.87,27.1,6.82,0,12.44-2.3,16.41-6.5Z"/>
    </g>
    <g>
      <path class="cls-1" d="M498.25,89.52C417.86,55.66,334.35,28.51,251.86,0l-5.37.04c-51.48,20.06-107.49,34.22-157.98,56.28-2.59,1.13-12.92,5.36-14.22,6.67-1.77,1.8-2.87,8.19-3.08,10.84l.07,101.23c-6.92,2.92-9.94,10.28-7.17,17.32,2.42,6.13,4.43,2.1,3.04,11.21-1.92,12.55-8.41,30.08-14.34,41.35-1.63,3.11-9.91,14.74-9.47,16.81,4.98,2.79,21.03,6.1,24.7,1.52,1.35-1.68,3.62-9.24,4.03-9.54,3.34,1.45,18.81,2.84,19.96-.51.19-18.71-3.78-37.34-7.35-55.62,5.2-5.32,7-11.67,2.37-18.1-1.05-1.46-4.88-3.99-4.98-4.31v-49.12l23.24,8.25.33,136.42c1.06,3.2,2.53,4.09,5.3,5.54,8.19,4.3,19.87,8.29,28.75,11.48,19.22,6.9,39.07,11.91,58.45,18.28l2.13,102.61c-1.58,5.25-30.31,9.28-32.8,17.52-1.28,4.27,1.2,5.07,4.72,5.44,8.45.88,15.09.13,23.17-.02,3.91-.08,21.66,1.21,22.75-2.01l-.67-118.63,32.8,6.88,31.78-6.9-.25,118.63c.52,1.54,2.68,1.91,4.11,2.07,10.07,1.16,31.63,1.14,41.81,0,3.62-.41,6.07-2.26,4.42-6.01-2.78-6.35-21.08-10.16-27.53-13.46-1.96-1-4.71-1.76-5.13-4.16l2.65-102.52c20.76-6.08,41.66-11.73,61.94-19.28,7.19-2.68,19.01-6.58,25.32-10.27,1.64-.96,2.87-2.26,3.86-3.87l.66-138.96,101.68-33.3c4.56-2.24,5.33-6.07,2.69-10.29ZM325.25,234.89c-10.36,27.44-58.09,24.55-75.39,5.69-13.15,15.58-45.88,18.95-62.77,8.45-5.44-3.39-17.91-17.43-13.48-23.89,2.35-3.44,5.68,2.66,7.36,4.07,15.16,12.77,27.2-9.39,39.06-16.03,10.47-5.87,21.28-6.16,29.94,3.02,1.03.18,3.94-3.24,5.41-4.15,9.39-5.85,19.64-2.78,28.06,3.06,9.33,6.48,19.04,22.55,32.01,16.46,3.04-1.42,8.42-8.91,10.96-7.13,1.76,1.22-.43,8.52-1.16,10.45ZM208.5,175.78c0-13.24,3.83-23.98,8.56-23.98s8.56,10.74,8.56,23.98-3.83,23.97-8.56,23.97-8.56-10.73-8.56-23.97ZM274.14,174.64c0-13.24,3.83-23.98,8.56-23.98s8.56,10.74,8.56,23.98-3.83,23.97-8.56,23.97-8.56-10.73-8.56-23.97ZM389.91,120.31c-8.78-1.35-17.72-3.49-26.43-5.29-38.06-7.85-75.82-17.01-113.94-24.6-42.64,9.11-85.13,19.01-127.87,27.68-1.25.25-14.84,3.36-14.85,2.17,47.41-15.06,94.84-30.25,142.84-43.45,48.08,12.52,95.16,28.46,142.59,43.07.18,1.45-1.53.54-2.34.42Z"/>
      <path class="cls-1" d="M62.74,119.11L4.72,100.93c-5.76-2.55-6.44-9.37-.98-12.59l58.66-21.79c2.35-.57.34,1.7.34,1.89v50.67Z"/>
    </g>
  </g>
</svg>